<svg width="70" height="70" viewBox="0 0 70 70" fill="none" xmlns="http://www.w3.org/2000/svg">
<circle cx="35" cy="35" r="35" fill="#EDEDED"/>
<path d="M14 22.9166V27.75V30.1666V37.4166V39.8333V51.9166V54.3332C14 56.9916 16.0893 59.1666 18.6667 59.1666H51.3333C53.9117 59.1666 56 56.9916 56 54.3332V51.9166V39.8333V30.1666V22.9166H14Z" fill="#6A14DA"/>
<path d="M14 20.5V25.3333V27.75V35V37.4166V49.5V51.9166C14 54.5749 16.0893 56.7499 18.6667 56.7499H51.3333C53.9117 56.7499 56 54.5749 56 51.9166V49.5V37.4166V27.75V20.5H14Z" fill="#ECF0F1"/>
<path d="M14 18.0834V22.9167V25.3334V32.5834V35V47.0833V49.5C14 52.1583 16.0893 54.3333 18.6667 54.3333H51.3333C53.9117 54.3333 56 52.1583 56 49.5V47.0833V35V25.3334V18.0834H14Z" fill="#BDC3C7"/>
<path d="M14 15.6666V20.5V22.9166V30.1666V32.5833V44.6666V47.0832C14 49.7416 16.0893 51.9166 18.6667 51.9166H51.3333C53.9117 51.9166 56 49.7416 56 47.0832V44.6666V32.5833V22.9166V15.6666H14Z" fill="#ECF0F1"/>
<path d="M18.6667 6C16.0893 6 14 8.175 14 10.8333V13.25V22.9166V27.75V30.1666V37.4166V39.8333V51.9166V54.3333C14 56.9916 16.0893 59.1666 18.6667 59.1666H23.3333V56.7499H19.8333C17.9004 56.7499 16.3333 55.0583 16.3333 53.1249C16.3333 50.9499 17.9004 49.4999 19.8333 49.4999H49H51.3333C53.9117 49.4999 56 47.3249 56 44.6666V42.2499V30.1666V20.5V13.25V10.8333C56 8.175 53.9117 6 51.3333 6H42H18.6667Z" fill="#6A14DA"/>
<path d="M25.6665 6V49.4999H27.9998H48.9998H51.3332C53.9115 49.4999 55.9998 47.3249 55.9998 44.6666V42.2499V30.1666V20.5V13.25V10.8333C55.9998 8.175 53.9115 6 51.3332 6H41.9998H27.9998H25.6665Z" fill="#872BFF"/>
<path d="M23.3335 54.3334V59.1667V64L29.1668 59.1667L35.0002 64V59.1667V54.3334H23.3335Z" fill="#E74C3C"/>
<path d="M35.0002 51.9165H23.3335V54.3332H35.0002V51.9165Z" fill="#C0392B"/>
</svg>
