<svg xmlns="http://www.w3.org/2000/svg" width="39.104" height="41.307" viewBox="0 0 39.104 41.307"><path d="M206.749,262.43h0a4.539,4.539,0,0,1-3.928-2.265l-8.276-14.3a3.244,3.244,0,0,0-2.777-1.619l-6.3-.059a10.433,10.433,0,0,1-4.524-1.079l-.914-.452a.983.983,0,0,1,0-1.762l.914-.452a10.436,10.436,0,0,1,4.524-1.079l6.3-.059a3.244,3.244,0,0,0,2.777-1.619l8.276-14.3a4.539,4.539,0,0,1,3.928-2.265h0c-3.374,6.222-5.3,13.994-6,17.238a.705.705,0,0,0,.7.855h0l.343-1.328a1.275,1.275,0,0,1,1.461-.936l1.766.32a1.093,1.093,0,0,1,.619.345h0a1.1,1.1,0,0,0,.648.35l.637.1-.712.125a1.093,1.093,0,0,0-.585.3l-.268.268-.438.423,1.336-.012a10.142,10.142,0,0,1,2.547.3l4.19,1.045,1.68-4.521a2.224,2.224,0,0,1,2.364-1.432l1.55.2L216.14,241.3l1.167.291a.189.189,0,0,1,0,.367l-1.167.291,2.444,6.543-1.563.2a2.224,2.224,0,0,1-2.359-1.418l-1.718-4.526-4.145,1.033a10.128,10.128,0,0,1-2.547.3l-1.336-.012.438.423.268.268a1.093,1.093,0,0,0,.585.3l.712.125-.637.1a1.1,1.1,0,0,0-.648.35h0a1.093,1.093,0,0,1-.619.345l-1.766.32a1.275,1.275,0,0,1-1.461-.936l-.343-1.328h0a.705.705,0,0,0-.7.855C201.453,248.436,203.375,256.207,206.749,262.43Z" transform="translate(-179.48 -221.123)"></path></svg>