<svg width="166" height="33" viewBox="0 0 166 33" fill="none" xmlns="http://www.w3.org/2000/svg">
<path d="M43.3935 24.8335C42.0088 24.8335 40.7821 24.5296 39.7133 23.9219C38.6446 23.3159 37.8063 22.4739 37.1985 21.3959C36.5907 20.3197 36.2868 19.0883 36.2868 17.7017C36.2868 16.3003 36.574 15.0652 37.1483 13.9964C37.7208 12.9277 38.5117 12.0857 39.5209 11.4705C40.5283 10.8553 41.691 10.5476 43.0088 10.5476C44.308 10.5476 45.4409 10.8423 46.4074 11.4315C47.3739 12.0207 48.122 12.8376 48.6517 13.8821C49.1815 14.9249 49.4463 16.1126 49.4463 17.4453C49.4463 17.7203 49.3608 17.9387 49.1898 18.1004C49.0188 18.2621 48.7967 18.343 48.5235 18.343H37.6223V16.7036H48.727L47.6258 17.4982C47.6425 16.5057 47.4631 15.6163 47.0877 14.8301C46.7103 14.0438 46.176 13.4286 45.4845 12.9844C44.7912 12.5383 43.966 12.3153 43.0088 12.3153C42.0329 12.3153 41.178 12.5467 40.4438 13.0095C39.7077 13.4704 39.139 14.107 38.7375 14.9193C38.336 15.7315 38.1353 16.659 38.1353 17.7017C38.1353 18.7463 38.362 19.6701 38.8156 20.4731C39.2672 21.276 39.8871 21.9089 40.6752 22.3717C41.4614 22.8327 42.3675 23.0631 43.3935 23.0631C44.0087 23.0631 44.6286 22.9563 45.2531 22.7425C45.8777 22.5288 46.3776 22.2593 46.7531 21.934C46.9408 21.7816 47.1546 21.7007 47.3943 21.6914C47.6341 21.6821 47.8395 21.7463 48.0105 21.8838C48.2317 22.0883 48.3469 22.3104 48.3562 22.5501C48.3655 22.7899 48.267 22.9953 48.0607 23.1663C47.4975 23.6458 46.7791 24.0436 45.9055 24.3596C45.0338 24.6756 44.1965 24.8335 43.3935 24.8335ZM58.6301 24.8335C57.3123 24.8335 56.132 24.5213 55.0893 23.8968C54.0466 23.2722 53.2213 22.4219 52.6136 21.3457C52.0076 20.2677 51.7046 19.053 51.7046 17.7017C51.7046 16.3338 52.016 15.1117 52.6386 14.0355C53.2632 12.9574 54.1144 12.1062 55.1925 11.4816C56.2687 10.859 57.4824 10.5476 58.8337 10.5476C60.1849 10.5476 61.3949 10.859 62.4637 11.4816C63.5324 12.1062 64.3791 12.9574 65.0036 14.0355C65.6281 15.1117 65.9487 16.3338 65.9655 17.7017L65.1709 18.3179C65.1709 19.5502 64.8837 20.658 64.3094 21.6412C63.7369 22.6245 62.959 23.4024 61.9758 23.9748C60.9925 24.5473 59.8773 24.8335 58.6301 24.8335ZM58.8337 23.038C59.8262 23.038 60.7109 22.8076 61.4879 22.3466C62.2667 21.8838 62.8828 21.2463 63.3363 20.434C63.7899 19.6218 64.0166 18.711 64.0166 17.7017C64.0166 16.6758 63.7899 15.7613 63.3363 14.9583C62.8828 14.1554 62.2667 13.5188 61.4879 13.0485C60.7109 12.5783 59.8262 12.3431 58.8337 12.3431C57.8597 12.3431 56.9796 12.5783 56.1934 13.0485C55.4053 13.5188 54.7808 14.1554 54.3198 14.9583C53.8589 15.7613 53.6284 16.6758 53.6284 17.7017C53.6284 18.711 53.8589 19.6218 54.3198 20.434C54.7808 21.2463 55.4053 21.8838 56.1934 22.3466C56.9796 22.8076 57.8597 23.038 58.8337 23.038ZM64.9645 24.7053C64.6746 24.7053 64.4348 24.6151 64.2452 24.4349C64.0575 24.2564 63.9636 24.0213 63.9636 23.7295V19.3439L64.4515 17.317L65.9655 17.7017V23.7295C65.9655 24.0213 65.8716 24.2564 65.6839 24.4349C65.4943 24.6151 65.2545 24.7053 64.9645 24.7053ZM79.8917 12.1619L70.6326 24.039L69.0184 23.1663L78.559 11.0328L79.8917 12.1619ZM79.2504 24.7053H69.7349C69.1364 24.7053 68.8371 24.406 68.8371 23.8075C68.8371 23.2091 69.1364 22.9098 69.7349 22.9098H79.2504C79.8489 22.9098 80.1482 23.2091 80.1482 23.8075C80.1482 24.406 79.8489 24.7053 79.2504 24.7053ZM79.1501 12.4714H69.6317C69.0332 12.4714 68.734 12.1721 68.734 11.5736C68.734 10.9751 69.0332 10.6759 69.6317 10.6759H79.1501C79.7486 10.6759 80.0478 10.9751 80.0478 11.5736C80.0478 12.1721 79.7486 12.4714 79.1501 12.4714ZM85.6378 30.8111C85.5022 30.8111 85.3488 30.7767 85.1778 30.7079C84.596 30.4514 84.4334 30.0407 84.6899 29.4756L92.9732 11.214C93.2297 10.6657 93.6404 10.5114 94.2055 10.7512C94.7872 10.9909 94.9499 11.3934 94.6934 11.9584L86.3822 30.22C86.2112 30.6141 85.9631 30.8111 85.6378 30.8111ZM88.4844 24.2704C88.2279 24.3893 87.9891 24.4107 87.7679 24.3345C87.5448 24.2564 87.3655 24.0891 87.2298 23.8326L81.5088 11.9835C81.3898 11.727 81.3731 11.4872 81.4586 11.2642C81.5441 11.043 81.7151 10.872 81.9716 10.7512C82.2281 10.6322 82.4669 10.6108 82.6881 10.687C82.9111 10.7651 83.0821 10.9324 83.2011 11.1889L88.819 23.038C88.9565 23.2945 88.9993 23.5343 88.9472 23.7574C88.8952 23.9785 88.7409 24.1495 88.4844 24.2704ZM108.929 24.7053C108.518 24.7053 108.211 24.4832 108.006 24.039L102.31 11.9584C102.208 11.7354 102.2 11.5123 102.285 11.2893C102.371 11.0681 102.542 10.8971 102.798 10.7763C103.038 10.6573 103.268 10.6406 103.49 10.7261C103.713 10.8116 103.884 10.9659 104.003 11.1889L109.467 23.013H108.416L113.803 11.1889C113.905 10.9491 114.08 10.7902 114.327 10.7121C114.576 10.6359 114.82 10.6489 115.06 10.7512C115.298 10.872 115.46 11.0476 115.545 11.2781C115.631 11.5086 115.622 11.7261 115.52 11.9305L109.902 24.039C109.698 24.4832 109.373 24.7053 108.929 24.7053ZM119.39 24.7053C119.083 24.7053 118.84 24.6151 118.659 24.4349C118.481 24.2564 118.392 24.0129 118.392 23.7044V11.674C118.392 11.3673 118.481 11.1238 118.659 10.9435C118.84 10.7651 119.083 10.6759 119.39 10.6759C119.682 10.6759 119.917 10.7651 120.095 10.9435C120.275 11.1238 120.366 11.3673 120.366 11.674V23.7044C120.366 24.0129 120.275 24.2564 120.095 24.4349C119.917 24.6151 119.682 24.7053 119.39 24.7053ZM119.365 8.00775C118.989 8.00775 118.665 7.87113 118.392 7.59791C118.117 7.32282 117.979 6.98918 117.979 6.597C117.979 6.1695 118.12 5.83122 118.403 5.58216C118.685 5.33495 119.014 5.21135 119.39 5.21135C119.75 5.21135 120.071 5.33495 120.352 5.58216C120.634 5.83122 120.775 6.1695 120.775 6.597C120.775 6.98918 120.639 7.32282 120.366 7.59791C120.092 7.87113 119.759 8.00775 119.365 8.00775ZM129.962 24.8335C128.953 24.8335 127.952 24.6625 126.959 24.3205C125.969 23.9785 125.166 23.4655 124.55 22.7816C124.361 22.5771 124.284 22.3466 124.319 22.0901C124.353 21.8336 124.481 21.6106 124.704 21.421C124.944 21.25 125.192 21.1821 125.448 21.2175C125.705 21.2509 125.918 21.3615 126.089 21.5492C126.498 22.0288 127.041 22.3968 127.718 22.6533C128.392 22.9098 129.14 23.038 129.962 23.038C131.228 23.038 132.142 22.8197 132.705 22.3829C133.271 21.9479 133.561 21.4228 133.578 20.8076C133.578 20.1905 133.287 19.6813 132.705 19.2798C132.124 18.8783 131.166 18.566 129.834 18.343C128.107 18.0698 126.841 17.5912 126.036 16.9072C125.234 16.2232 124.832 15.4109 124.832 14.4704C124.832 13.5987 125.063 12.8719 125.523 12.2902C125.986 11.7084 126.602 11.2725 127.372 10.9826C128.141 10.6926 128.987 10.5476 129.909 10.5476C131.056 10.5476 132.044 10.7437 132.873 11.1359C133.702 11.53 134.373 12.0606 134.886 12.7279C135.057 12.9491 135.125 13.1796 135.092 13.4193C135.057 13.6591 134.92 13.8561 134.682 14.0104C134.476 14.1293 134.241 14.1674 133.977 14.1247C133.711 14.0819 133.484 13.9583 133.297 13.7539C132.869 13.2576 132.373 12.8942 131.808 12.6638C131.245 12.4314 130.595 12.3153 129.859 12.3153C128.918 12.3153 128.166 12.5076 127.601 12.8924C127.037 13.2771 126.756 13.7604 126.756 14.3422C126.756 14.7362 126.863 15.0782 127.076 15.3682C127.29 15.66 127.657 15.9165 128.178 16.1377C128.7 16.3607 129.431 16.5494 130.372 16.7036C131.654 16.9081 132.667 17.2111 133.411 17.6125C134.154 18.014 134.685 18.4843 135.003 19.0233C135.319 19.5623 135.477 20.1478 135.477 20.7797C135.477 21.5846 135.242 22.2899 134.771 22.8959C134.301 23.5037 133.652 23.9785 132.823 24.3205C131.992 24.6625 131.038 24.8335 129.962 24.8335ZM144.733 24.8335C143.417 24.8335 142.237 24.5213 141.192 23.8968C140.15 23.2722 139.325 22.4219 138.719 21.3457C138.111 20.2677 137.808 19.053 137.808 17.7017C137.808 16.3338 138.12 15.1117 138.744 14.0355C139.369 12.9574 140.219 12.1062 141.295 11.4816C142.373 10.859 143.588 10.5476 144.939 10.5476C146.289 10.5476 147.498 10.859 148.567 11.4816C149.635 12.1062 150.482 12.9574 151.106 14.0355C151.731 15.1117 152.052 16.3338 152.068 17.7017L151.274 18.3179C151.274 19.5502 150.988 20.658 150.415 21.6412C149.843 22.6245 149.065 23.4024 148.081 23.9748C147.098 24.5473 145.982 24.8335 144.733 24.8335ZM144.939 23.038C145.93 23.038 146.815 22.8076 147.594 22.3466C148.371 21.8838 148.986 21.2463 149.439 20.434C149.893 19.6218 150.12 18.711 150.12 17.7017C150.12 16.6758 149.893 15.7613 149.439 14.9583C148.986 14.1554 148.371 13.5188 147.594 13.0485C146.815 12.5783 145.93 12.3431 144.939 12.3431C143.964 12.3431 143.083 12.5783 142.296 13.0485C141.51 13.5188 140.886 14.1554 140.423 14.9583C139.962 15.7613 139.731 16.6758 139.731 17.7017C139.731 18.711 139.962 19.6218 140.423 20.434C140.886 21.2463 141.51 21.8838 142.296 22.3466C143.083 22.8076 143.964 23.038 144.939 23.038ZM151.067 24.7053C150.778 24.7053 150.539 24.6151 150.351 24.4349C150.163 24.2564 150.069 24.0213 150.069 23.7295V19.3439L150.554 17.317L152.068 17.7017V23.7295C152.068 24.0213 151.975 24.2564 151.787 24.4349C151.599 24.6151 151.359 24.7053 151.067 24.7053ZM160.485 24.8335C159.476 24.8335 158.475 24.6625 157.483 24.3205C156.492 23.9785 155.689 23.4655 155.074 22.7816C154.884 22.5771 154.807 22.3466 154.842 22.0901C154.876 21.8336 155.004 21.6106 155.227 21.421C155.467 21.25 155.715 21.1821 155.972 21.2175C156.228 21.2509 156.442 21.3615 156.613 21.5492C157.022 22.0288 157.565 22.3968 158.241 22.6533C158.916 22.9098 159.664 23.038 160.485 23.038C161.751 23.038 162.666 22.8197 163.229 22.3829C163.794 21.9479 164.085 21.4228 164.102 20.8076C164.102 20.1905 163.811 19.6813 163.229 19.2798C162.647 18.8783 161.69 18.566 160.357 18.343C158.63 18.0698 157.365 17.5912 156.56 16.9072C155.757 16.2232 155.355 15.4109 155.355 14.4704C155.355 13.5987 155.586 12.8719 156.047 12.2902C156.51 11.7084 157.126 11.2725 157.895 10.9826C158.665 10.6926 159.511 10.5476 160.432 10.5476C161.579 10.5476 162.567 10.7437 163.396 11.1359C164.225 11.53 164.896 12.0606 165.409 12.7279C165.58 12.9491 165.649 13.1796 165.615 13.4193C165.58 13.6591 165.444 13.8561 165.206 14.0104C164.999 14.1293 164.764 14.1674 164.5 14.1247C164.234 14.0819 164.008 13.9583 163.82 13.7539C163.392 13.2576 162.896 12.8942 162.331 12.6638C161.768 12.4314 161.118 12.3153 160.382 12.3153C159.442 12.3153 158.689 12.5076 158.124 12.8924C157.561 13.2771 157.279 13.7604 157.279 14.3422C157.279 14.7362 157.386 15.0782 157.6 15.3682C157.814 15.66 158.181 15.9165 158.701 16.1377C159.223 16.3607 159.955 16.5494 160.895 16.7036C162.178 16.9081 163.191 17.2111 163.934 17.6125C164.678 18.014 165.208 18.4843 165.526 19.0233C165.842 19.5623 166 20.1478 166 20.7797C166 21.5846 165.765 22.2899 165.295 22.8959C164.825 23.5037 164.175 23.9785 163.346 24.3205C162.515 24.6625 161.562 24.8335 160.485 24.8335ZM13.0251 16.9208C16.3482 16.9208 19.0219 14.2089 19.0219 10.924C19.0219 7.63917 16.31 4.92725 13.0251 4.92725C9.74024 4.92725 7.02832 7.60097 7.02832 10.924C7.02832 14.2471 9.70205 16.9208 13.0251 16.9208ZM9.70205 9.62537L13.5599 9.24341L14.5911 7.21901C14.7439 6.91344 15.1259 6.79885 15.4315 6.95164C15.737 7.10442 15.8516 7.48638 15.6988 7.79195L14.6675 9.77815L16.6919 13.1012L16.31 13.8269L13.8272 11.4206L12.7959 13.445L13.2543 14.3617L12.9869 14.8964L11.8792 13.8651L10.3896 13.5978L10.6569 13.063L11.6882 12.872L12.7195 10.8476L9.32009 10.3129L9.70205 9.62537Z" fill="white"/>
<path d="M24.1017 0H1.948C0.87851 0 0 0.87851 0 1.948V30.977C0 32.0465 0.87851 32.925 1.948 32.925H24.1399C25.2094 32.925 26.0879 32.0465 26.0879 30.977V1.948C26.0879 0.87851 25.2094 0 24.1017 0ZM13.0249 3.9342C16.8871 3.93643 20.0173 7.06935 20.0148 10.9316C20.0125 14.7942 16.8796 17.924 13.0173 17.9215C9.15479 17.9193 6.02495 14.7864 6.02746 10.9241C6.02969 7.06182 9.1626 3.93169 13.0249 3.9342ZM20.9697 24.8657C20.9697 25.0683 20.8892 25.2626 20.7459 25.4058C20.6026 25.5491 20.4083 25.6296 20.2057 25.6296H5.8822C5.67959 25.6296 5.48529 25.5491 5.34202 25.4058C5.19876 25.2626 5.11828 25.0683 5.11828 24.8657C5.11828 24.6631 5.19876 24.4688 5.34202 24.3255C5.48529 24.1822 5.67959 24.1017 5.8822 24.1017H20.2057C20.4083 24.1017 20.6026 24.1822 20.7459 24.3255C20.8892 24.4688 20.9697 24.6631 20.9697 24.8657ZM20.9697 21.9628C20.9697 22.1654 20.8892 22.3597 20.7459 22.5029C20.6026 22.6462 20.4083 22.7267 20.2057 22.7267H5.8822C5.67959 22.7267 5.48529 22.6462 5.34202 22.5029C5.19876 22.3597 5.11828 22.1654 5.11828 21.9628C5.11828 21.7602 5.19876 21.5658 5.34202 21.4226C5.48529 21.2793 5.67959 21.1988 5.8822 21.1988H20.2057C20.4083 21.1988 20.6026 21.2793 20.7459 21.4226C20.8892 21.5658 20.9697 21.7602 20.9697 21.9628Z" fill="white"/>
</svg>
