<svg width="306" height="299" viewBox="0 0 306 299" fill="none" xmlns="http://www.w3.org/2000/svg">
<path d="M40.1852 195.579C39.8905 195.796 39.5078 195.792 39.217 195.627C39.1039 195.562 39 195.482 38.9307 195.378C37.8698 193.898 36.8595 192.403 35.9 190.895C35.6318 190.464 35.753 189.913 36.1836 189.645C36.6143 189.377 37.1655 189.498 37.4337 189.928C38.354 191.393 39.348 192.878 40.3858 194.324C40.6724 194.723 40.5836 195.292 40.1852 195.579ZM106.936 71.882C107.404 71.699 107.624 71.1614 107.432 70.7099C107.249 70.2422 106.711 70.0219 106.26 70.214C104.576 70.8811 102.924 71.5665 101.304 72.2703C100.853 72.4625 100.632 73.0001 100.825 73.4516C100.906 73.6475 101.04 73.7878 101.201 73.8798C101.443 74.0177 101.734 74.0333 102.006 73.9313C103.616 73.2437 105.268 72.5582 106.927 71.8982L106.936 71.882ZM34.7741 185.357C33.9343 183.788 33.1545 182.19 32.4484 180.612C32.2401 180.151 31.7095 179.956 31.2579 180.148C30.7972 180.356 30.6022 180.887 30.7944 181.339C31.5143 182.967 32.3173 184.6 33.1802 186.203C33.2635 186.358 33.3905 186.473 33.5359 186.556C33.7944 186.703 34.1264 186.72 34.4097 186.561C34.8473 186.318 35.0261 185.778 34.7833 185.341L34.7741 185.357ZM87.9061 79.4671C87.6886 79.0225 87.1234 78.8507 86.695 79.0774C85.0688 79.9057 83.4842 80.7362 81.9318 81.5852C81.4942 81.8281 81.3315 82.3771 81.5743 82.8147C81.6576 82.969 81.7846 83.0841 81.93 83.1668C82.1885 83.3139 82.5206 83.3317 82.8038 83.1721C84.347 82.3393 85.9156 81.4996 87.5164 80.6782C87.961 80.4607 88.149 79.9047 87.9061 79.4671ZM28.9698 170.677C28.8375 170.195 28.3459 169.894 27.8551 170.042C27.3735 170.175 27.0723 170.666 27.2208 171.157C27.6689 172.888 28.2 174.623 28.8072 176.337C28.879 176.549 29.0361 176.724 29.2138 176.825C29.44 176.954 29.7052 176.976 29.9678 176.89C30.4425 176.733 30.679 176.204 30.5214 175.73C29.9281 174.066 29.4201 172.366 28.986 170.686L28.9698 170.677ZM126.48 62.9426C124.752 63.4991 123.065 64.0578 121.378 64.6165C120.904 64.7741 120.651 65.2933 120.809 65.768C120.88 65.9799 121.038 66.1549 121.215 66.256C121.425 66.3755 121.707 66.4073 121.944 66.3284C123.614 65.7606 125.301 65.2019 127.004 64.6524C127.478 64.4947 127.747 63.9847 127.59 63.5101C127.432 63.0354 126.922 62.7666 126.447 62.9243L126.48 62.9426ZM54.6462 209.967C53.3114 208.779 52.0204 207.553 50.7709 206.329C50.4244 205.96 49.832 205.987 49.489 206.326C49.137 206.682 49.1472 207.265 49.5121 207.601C50.7686 208.851 52.1011 210.08 53.4428 211.292C53.4913 211.32 53.5467 211.373 53.5952 211.4C53.9506 211.602 54.4369 211.537 54.7199 211.228C55.0559 210.863 55.0202 210.286 54.6554 209.95L54.6462 209.967ZM117.465 66.9452C117.299 66.4867 116.779 66.2341 116.305 66.3917C114.607 67.0081 112.925 67.6336 111.268 68.2522C110.801 68.4352 110.573 68.9474 110.731 69.4221C110.812 69.6179 110.953 69.7836 111.131 69.8847C111.357 70.0134 111.638 70.0452 111.91 69.9433C113.55 69.3155 115.223 68.7061 116.921 68.0898C117.38 67.9229 117.632 67.4037 117.475 66.9291L117.465 66.9452ZM148.193 57.6328C148.06 57.1512 147.569 56.8501 147.087 56.9824C145.331 57.4374 143.617 57.8947 141.902 58.352C141.421 58.4843 141.136 58.9851 141.268 59.4667C141.321 59.711 141.495 59.8952 141.688 60.0055C141.882 60.1158 142.138 60.1545 142.366 60.0918C144.065 59.6254 145.779 59.1681 147.526 58.7291C148.008 58.5969 148.309 58.1052 148.176 57.6236L148.193 57.6328ZM47.0959 202.527C45.8854 201.196 44.7256 199.852 43.6235 198.519C43.3115 198.128 42.7397 198.08 42.3483 198.392C41.9569 198.704 41.9095 199.276 42.2215 199.667C43.3306 201.026 44.5135 202.404 45.7564 203.753C45.8188 203.832 45.8995 203.877 45.9803 203.923C46.3196 204.116 46.746 204.081 47.036 203.797C47.4043 203.451 47.4263 202.886 47.0959 202.527ZM132.133 63.0799C133.817 62.5627 135.518 62.0547 137.251 61.5651C137.732 61.4328 138.001 60.9228 137.885 60.4504C137.753 59.9688 137.243 59.7 136.77 59.8161C135.028 60.3219 133.312 60.8207 131.627 61.3379C131.153 61.4955 130.877 61.9802 131.025 62.471C131.088 62.6991 131.245 62.874 131.439 62.9844C131.649 63.1039 131.905 63.1426 132.142 63.0638L132.133 63.0799ZM34.5383 125.298C34.9744 125.547 35.5068 125.4 35.7711 124.973C36.6352 123.455 37.5893 121.966 38.5757 120.496C38.8562 120.078 38.7446 119.522 38.3268 119.242C37.9159 118.987 37.3535 119.073 37.073 119.491C36.0521 120.984 35.0866 122.531 34.1879 124.073C33.9397 124.509 34.0767 125.057 34.5129 125.305L34.5383 125.298ZM31.1819 134.467C31.8015 132.852 32.5132 131.225 33.2896 129.635C33.5055 129.181 33.3178 128.646 32.8632 128.43C32.4087 128.214 31.8741 128.402 31.6582 128.857C30.8634 130.479 30.1403 132.163 29.4931 133.827C29.3371 134.251 29.4948 134.726 29.8825 134.946C29.9148 134.965 29.9633 134.992 29.9956 135.011C30.4685 135.194 30.9892 134.956 31.1635 134.499L31.1819 134.467ZM40.4288 116.375C40.4288 116.375 40.5096 116.421 40.5419 116.439C40.9296 116.66 41.4343 116.562 41.7034 116.202C42.7592 114.835 43.891 113.447 45.062 112.103C45.3818 111.729 45.3462 111.153 44.9721 110.833C44.5981 110.513 44.0217 110.549 43.702 110.923C42.5125 112.299 41.3554 113.694 40.2812 115.093C39.9684 115.492 40.0547 116.055 40.438 116.359L40.4288 116.375ZM47.3675 108.24C47.3675 108.24 47.4783 108.346 47.5429 108.382C47.8984 108.585 48.3432 108.517 48.6332 108.233C49.8321 106.99 51.1232 105.736 52.4283 104.533C52.7965 104.186 52.8185 103.621 52.472 103.253C52.1255 102.885 51.5607 102.863 51.1924 103.209C49.869 104.445 48.5687 105.715 47.3352 106.981C46.9831 107.337 46.9934 107.92 47.3583 108.256L47.3675 108.24ZM91.466 78.2848C91.7083 78.4227 92.0312 78.4567 92.3053 78.3133C93.8855 77.5657 95.4911 76.8112 97.1381 76.0589C97.5989 75.8506 97.7939 75.32 97.5855 74.8593C97.3772 74.3985 96.8466 74.2035 96.3859 74.4119C94.7226 75.155 93.1171 75.9095 91.5184 76.6893C91.0739 76.9069 90.8789 77.4375 91.0872 77.8982C91.1613 78.0687 91.2953 78.2091 91.4568 78.301L91.466 78.2848ZM27.238 160.303C27.1979 159.809 26.7684 159.437 26.2589 159.467C25.7656 159.507 25.3929 159.937 25.4238 160.446C25.5608 162.235 25.7877 164.054 26.0837 165.826C26.135 166.112 26.306 166.338 26.5322 166.466C26.7099 166.568 26.9243 166.604 27.1341 166.574C27.6296 166.492 27.9631 166.019 27.8723 165.54C27.574 163.809 27.361 162.041 27.2288 160.319L27.238 160.303ZM63.5199 94.2482C63.6054 94.361 63.6931 94.4324 63.8062 94.4967C64.1131 94.6714 64.4889 94.6499 64.7744 94.4488C66.1859 93.4341 67.6388 92.4217 69.1333 91.4115C69.5477 91.1341 69.6528 90.5736 69.3754 90.1592C69.0979 89.7447 68.5375 89.6396 68.123 89.917C66.6032 90.9342 65.1249 91.9536 63.7043 92.9845C63.306 93.2711 63.2171 93.8407 63.5037 94.239L63.5199 94.2482ZM29.4895 139.47C29.6316 138.995 29.3679 138.482 28.8835 138.356C28.4083 138.214 27.9108 138.487 27.7687 138.962C27.2508 140.699 26.8137 142.482 26.4618 144.228C26.391 144.615 26.5785 145 26.9016 145.184C26.9824 145.23 27.0632 145.276 27.1623 145.289C27.6397 145.39 28.1233 145.066 28.2239 144.589C28.5735 142.884 28.9992 141.159 29.4895 139.47ZM60.6833 96.3768C60.3714 95.9854 59.8087 95.9218 59.4265 96.2177C57.9923 97.3477 56.5995 98.4799 55.2482 99.6144C54.873 99.9355 54.8256 100.507 55.1467 100.883C55.2091 100.961 55.2969 101.032 55.3938 101.087C55.7169 101.271 56.1342 101.252 56.4311 100.993C57.757 99.8657 59.1245 98.7404 60.5496 97.6266C60.9409 97.3146 61.0045 96.752 60.7087 96.3698L60.6833 96.3768ZM27.4033 149.789C27.4554 149.284 27.1042 148.849 26.5992 148.797C26.0942 148.745 25.6591 149.096 25.607 149.601C25.4189 151.397 25.3046 153.214 25.2733 155.036C25.2716 155.377 25.4474 155.669 25.7382 155.835C25.8674 155.908 26.0151 155.95 26.1649 155.949C26.6722 155.96 27.068 155.565 27.0786 155.058C27.1146 153.303 27.2175 151.544 27.3941 149.805L27.4033 149.789ZM78.5089 84.5563C78.266 84.1187 77.7078 83.9722 77.261 84.2312C75.688 85.1539 74.1565 86.0789 72.6504 86.9969C72.2197 87.2652 72.0985 87.8164 72.3668 88.2471C72.4431 88.376 72.5539 88.4819 72.6832 88.5554C72.9578 88.7117 73.3152 88.7226 73.6077 88.5468C75.0977 87.6196 76.62 86.7108 78.1676 85.795C78.6052 85.5521 78.7517 84.9939 78.4835 84.5633L78.5089 84.5563ZM183.796 251.762C182.007 251.749 180.237 251.704 178.466 251.658C177.959 251.648 177.547 252.034 177.536 252.541C177.534 252.882 177.717 253.2 177.992 253.356C178.121 253.43 178.268 253.471 178.418 253.471C180.189 253.516 181.985 253.554 183.79 253.576C184.281 253.578 184.703 253.176 184.704 252.685C184.705 252.194 184.304 251.772 183.812 251.771L183.796 251.762ZM162.482 250.733C160.693 250.57 158.929 250.401 157.174 250.215C156.669 250.163 156.234 250.514 156.182 251.019C156.146 251.383 156.335 251.726 156.642 251.901C156.739 251.956 156.861 252.004 156.986 252.011C158.757 252.206 160.546 252.369 162.336 252.532C162.825 252.574 163.269 252.207 163.312 251.718C163.355 251.229 162.987 250.785 162.498 250.742L162.482 250.733ZM173.133 251.447C171.339 251.367 169.563 251.255 167.813 251.136C167.315 251.109 166.887 251.486 166.844 251.975C166.817 252.323 167.016 252.65 167.307 252.815C167.42 252.88 167.551 252.912 167.692 252.928C169.468 253.04 171.243 253.152 173.053 253.241C173.551 253.267 173.963 252.882 173.99 252.384C174.017 251.886 173.64 251.457 173.133 251.447ZM130.863 245.979C129.11 245.602 127.375 245.192 125.666 244.775C125.182 244.65 124.691 244.948 124.582 245.441C124.485 245.836 124.68 246.246 125.019 246.439C125.084 246.476 125.164 246.522 125.247 246.526C126.973 246.952 128.716 247.345 130.485 247.732C130.979 247.841 131.453 247.534 131.563 247.04C131.673 246.547 131.365 246.072 130.872 245.963L130.863 245.979ZM151.879 249.597C150.101 249.377 148.342 249.124 146.592 248.855C146.096 248.787 145.628 249.12 145.56 249.616C145.498 249.987 145.695 250.355 146.002 250.53C146.099 250.585 146.205 250.624 146.32 250.647C148.071 250.916 149.856 251.162 151.634 251.382C152.13 251.45 152.59 251.092 152.633 250.603C152.701 250.108 152.343 249.647 151.854 249.604L151.879 249.597ZM141.333 248.023C139.56 247.72 137.821 247.393 136.082 247.067C135.595 246.982 135.121 247.29 135.011 247.783C134.941 248.171 135.128 248.556 135.451 248.739C135.532 248.785 135.613 248.831 135.737 248.838C137.492 249.174 139.247 249.509 141.021 249.813C141.507 249.897 141.975 249.564 142.059 249.078C142.144 248.591 141.811 248.124 141.324 248.039L141.333 248.023ZM194.473 251.678C192.672 251.723 190.907 251.744 189.141 251.766C188.649 251.764 188.244 252.176 188.243 252.667C188.241 253.008 188.426 253.284 188.701 253.44C188.83 253.514 188.994 253.564 189.153 253.548C190.935 253.536 192.726 253.507 194.527 253.462C195.027 253.447 195.416 253.027 195.418 252.536C195.403 252.036 194.982 251.647 194.491 251.646L194.473 251.678ZM215.778 250.392C213.996 250.554 212.224 250.7 210.451 250.847C209.958 250.887 209.585 251.316 209.616 251.826C209.633 252.134 209.827 252.395 210.069 252.533C210.214 252.615 210.404 252.659 210.579 252.651C212.352 252.505 214.14 252.368 215.931 252.19C216.425 252.15 216.79 251.695 216.75 251.202C216.71 250.708 216.255 250.343 215.762 250.383L215.778 250.392ZM227.395 250.009C227.33 249.522 226.875 249.157 226.388 249.222C224.611 249.451 222.853 249.648 221.094 249.845C220.591 249.901 220.235 250.34 220.291 250.842C220.333 251.144 220.495 251.386 220.737 251.524C220.899 251.616 221.088 251.659 221.288 251.645C223.047 251.448 224.831 251.245 226.608 251.015C227.095 250.95 227.46 250.495 227.395 250.009ZM205.128 251.218C203.332 251.33 201.571 251.418 199.794 251.498C199.294 251.512 198.905 251.933 198.936 252.442C198.943 252.767 199.128 253.043 199.386 253.191C199.532 253.273 199.696 253.324 199.871 253.316C201.648 253.237 203.435 253.142 205.231 253.03C205.74 252.999 206.113 252.57 206.073 252.076C206.033 251.583 205.612 251.194 205.119 251.234L205.128 251.218ZM71.6679 222.711C70.1537 221.763 68.6741 220.793 67.2129 219.791C66.7974 219.469 66.2397 219.622 65.9684 220.023C65.6879 220.441 65.7995 220.997 66.2012 221.268C67.6624 222.271 69.1743 223.259 70.7046 224.216L70.7369 224.234C71.1569 224.473 71.6801 224.343 71.9514 223.941C72.2157 223.514 72.0879 222.95 71.6771 222.694L71.6679 222.711ZM178.855 51.8549C179.35 51.7733 179.668 51.2908 179.586 50.7953C179.495 50.3159 179.022 49.9825 178.526 50.0641C176.752 50.4016 175.002 50.7322 173.269 51.0719C172.781 51.1789 172.456 51.6359 172.554 52.1407C172.615 52.4103 172.77 52.6267 172.996 52.7554C173.173 52.8565 173.404 52.9022 173.623 52.8557C175.356 52.516 177.105 52.1854 178.88 51.8479L178.855 51.8549ZM168.001 52.1374C166.233 52.5003 164.482 52.8723 162.762 53.2628C162.274 53.3697 161.957 53.8521 162.064 54.3407C162.124 54.6104 162.288 54.8106 162.498 54.9301C162.692 55.0405 162.906 55.077 163.141 55.0396C164.861 54.6492 166.603 54.2933 168.371 53.9304C168.859 53.8235 169.167 53.3572 169.07 52.8525C168.963 52.3639 168.48 52.0466 167.992 52.1536L168.001 52.1374ZM120.502 243.441C118.779 242.974 117.065 242.49 115.376 242C114.901 241.858 114.404 242.131 114.261 242.606C114.14 243.007 114.316 243.45 114.671 243.652C114.736 243.689 114.785 243.716 114.858 243.737C116.563 244.236 118.293 244.729 120.032 245.205C120.517 245.331 121.014 245.058 121.14 244.574C121.266 244.09 120.977 243.583 120.509 243.466L120.502 243.441ZM80.8719 228.033C79.658 227.385 78.4695 226.731 77.3063 226.069L76.2239 225.453C75.8568 225.158 75.2393 225.342 74.9911 225.778C74.7429 226.214 74.8799 226.762 75.3161 227.011L76.4146 227.636C77.594 228.307 78.7895 228.987 80.0287 229.628C80.4649 229.876 81.0156 229.698 81.2476 229.252C81.4958 228.816 81.3243 228.291 80.8719 228.033ZM62.9006 216.695C61.46 215.619 60.0701 214.529 58.7055 213.431C58.3223 213.128 57.746 213.163 57.4332 213.563C57.1042 213.953 57.1651 214.522 57.5646 214.835C58.9361 215.958 60.3583 217.066 61.815 218.152C61.8474 218.17 61.8797 218.189 61.912 218.207C62.2997 218.428 62.8044 218.33 63.0827 217.954C63.3794 217.545 63.2931 216.983 62.9006 216.695ZM157.538 54.4389C155.784 54.8524 154.03 55.266 152.318 55.6818C151.837 55.8141 151.545 56.2895 151.652 56.7781C151.721 57.0316 151.869 57.2227 152.079 57.3422C152.273 57.4525 152.504 57.4982 152.732 57.4355C154.444 57.0197 156.182 56.597 157.926 56.1996C158.415 56.0926 158.716 55.601 158.609 55.1124C158.502 54.6238 158.01 54.3227 157.522 54.4297L157.538 54.4389ZM100.252 236.858C98.5885 236.211 96.9343 235.548 95.3053 234.878C94.8416 234.678 94.314 234.891 94.1304 235.364C93.9491 235.795 94.1229 236.279 94.5106 236.5C94.5429 236.518 94.5752 236.537 94.6075 236.555C96.2434 237.251 97.8977 237.914 99.6026 238.563C100.076 238.747 100.596 238.508 100.771 238.052C100.954 237.579 100.732 237.067 100.259 236.884L100.252 236.858ZM110.292 240.411C108.599 239.854 106.906 239.297 105.24 238.691C104.774 238.533 104.253 238.772 104.095 239.238C103.939 239.662 104.131 240.114 104.503 240.325C104.551 240.353 104.6 240.38 104.648 240.408C106.323 240.997 108.023 241.58 109.742 242.13C110.208 242.288 110.721 242.024 110.889 241.542C111.047 241.076 110.783 240.563 110.317 240.404L110.292 240.411ZM190.133 48.9479C190.051 48.4524 189.578 48.1189 189.098 48.2097C187.326 48.5057 185.554 48.8017 183.814 49.1161C183.318 49.1977 182.985 49.671 183.082 50.1757C183.134 50.4615 183.305 50.6871 183.531 50.8158C183.708 50.9169 183.923 50.9534 184.133 50.9231C185.873 50.6087 187.62 50.3196 189.392 50.0236C189.888 49.942 190.221 49.4688 190.13 48.9894L190.133 48.9479ZM90.4092 232.733C88.7755 231.996 87.1764 231.236 85.5957 230.443C85.1411 230.227 84.6066 230.415 84.3837 230.844C84.177 231.283 84.3324 231.799 84.7363 232.029L84.7848 232.056C86.3747 232.833 88.0061 233.611 89.6559 234.358C90.1105 234.574 90.6381 234.36 90.8539 233.906C91.0698 233.451 90.8476 232.94 90.4022 232.708L90.4092 232.733Z" fill="#872BFF"/>
<path d="M227.673 45.2878C232.375 44.5415 238.004 42.8045 237.834 41.788C237.664 40.7716 231.783 40.8468 227.072 41.6093C226.643 41.6862 226.224 41.7469 225.82 41.8168C225.31 41.3981 224.241 40.5332 222.876 39.4359C222.893 39.4451 222.925 39.4635 222.941 39.4727L224.209 39.2744C224.368 39.258 224.469 39.0803 224.42 38.9028L224.22 37.6767C224.196 37.4923 224.053 37.368 223.885 37.4006L222.617 37.5989C222.617 37.5989 222.497 37.659 222.445 37.7145L220.967 37.9431C219.81 37.0068 218.55 35.9901 217.305 34.9825L218.547 34.7912C218.707 34.7748 218.808 34.5971 218.759 34.4197L218.558 33.1935C218.535 33.0091 218.392 32.8849 218.224 32.9174L216.956 33.1157C216.956 33.1157 216.836 33.1759 216.783 33.2313L215.357 33.446C212.189 30.8949 209.522 28.7787 209.407 28.7558C209.118 28.6987 207.268 29.0571 207.268 29.0571C206.823 29.1248 206.484 29.2315 206.482 29.273C206.496 29.3237 206.989 29.2836 207.409 29.2229L212.489 35.2149C212.144 35.2962 211.904 35.4166 211.916 35.5088C211.934 35.6263 212.308 35.6464 212.737 35.5695L212.787 35.5556L213.781 36.7411C213.461 36.8155 213.221 36.9358 213.233 37.028C213.251 37.1456 213.625 37.1656 214.054 37.0888L214.971 38.1453L215.381 39.0414C214.993 39.1205 214.687 39.2456 214.699 39.3378C214.717 39.4553 215.091 39.4754 215.519 39.3985L215.536 39.4077L216.357 41.1584C215.97 41.2375 215.664 41.3626 215.692 41.464C215.71 41.5815 216.084 41.6016 216.512 41.5247L217.258 43.1465C214.107 43.6847 212.863 43.9176 210.528 44.2999C208.177 44.673 205.934 45.1936 204.066 45.7341C202.325 44.3586 198.919 41.5866 198.919 41.5866L197.582 41.6813L199.868 47.1735C199.467 47.3517 199.151 47.4929 198.944 47.6316C197.983 47.8547 197.391 48.031 197.402 48.1232C197.414 48.2154 198.014 48.2143 198.968 48.1158C199.215 48.1706 199.588 48.1907 200.061 48.2244L199.581 54.2173L200.887 53.913C200.887 53.913 203.43 49.9705 204.617 48.1862C206.502 48.1044 208.674 47.9713 210.974 47.762C213.888 47.3025 215.178 47.1388 217.864 46.742L217.652 48.5038C217.198 48.5876 216.867 48.7196 216.885 48.8371C216.897 48.9293 217.22 48.9633 217.63 48.9188L217.401 50.8628L217.385 50.8536C216.931 50.9374 216.59 51.0856 216.618 51.1869C216.629 51.2791 216.968 51.3223 217.362 51.2686L217.26 52.2371L216.733 53.5407C216.288 53.6083 215.947 53.7565 215.965 53.8741C215.977 53.9663 216.233 54.005 216.577 53.9652L215.991 55.4072L215.959 55.3888C215.505 55.4726 215.164 55.6208 215.183 55.7383C215.194 55.8305 215.476 55.8623 215.819 55.8225L212.84 63.088C212.427 63.174 211.939 63.281 211.936 63.3225C211.95 63.3732 212.301 63.3587 212.746 63.291C212.746 63.291 214.631 63.0593 214.864 62.9137C214.958 62.8605 216.834 60.0144 219.064 56.6212L220.491 56.4065C220.491 56.4065 220.62 56.4801 220.687 56.4753L221.955 56.2771C222.114 56.2606 222.215 56.0829 222.166 55.9055L221.966 54.6793C221.942 54.4949 221.799 54.3707 221.631 54.4033L220.389 54.5946C221.26 53.2512 222.131 51.9078 222.957 50.6452L224.434 50.4165C224.434 50.4165 224.563 50.4901 224.63 50.4854L225.898 50.2871C226.057 50.2707 226.158 50.093 226.109 49.9155L225.909 48.6894C225.885 48.505 225.742 48.3807 225.574 48.4133L224.306 48.6116C224.306 48.6116 224.288 48.6439 224.237 48.6578C225.189 47.2105 225.925 46.068 226.288 45.5047C226.691 45.4348 227.111 45.3741 227.556 45.3065L227.673 45.2878Z" fill="#872BFF"/>
</svg>
